<svg xmlns="http://www.w3.org/2000/svg" viewBox="0 0 92 92">
  <path fill="#F05133" d="M90.156 41.965 50.036 1.848a5.918 5.918 0 0 0-8.372 0l-8.328 8.332 10.566 10.566a7.03 7.03 0 0 1 7.23 1.684 7.034 7.034 0 0 1 1.67 7.275l10.187 10.184a7.028 7.028 0 0 1 7.275 1.671 7.04 7.04 0 0 1 0 9.957 7.05 7.05 0 0 1-9.957 0 7.044 7.044 0 0 1-1.528-7.707l-9.5-9.5v25.013a7.04 7.04 0 0 1 1.86 11.277 7.04 7.04 0 0 1-9.957 0 7.04 7.04 0 0 1 0-9.957 7.06 7.06 0 0 1 2.304-1.539V33.926a7.008 7.008 0 0 1-2.304-1.535 7.049 7.049 0 0 1-1.52-7.711L29.242 14.273 1.734 41.777a5.925 5.925 0 0 0 0 8.371L41.855 90.27a5.925 5.925 0 0 0 8.371 0l39.93-39.93a5.925 5.925 0 0 0 0-8.375"/>
</svg> 